<?xml version="1.0" encoding="UTF-8" standalone="no"?>
<!-- Created with Inkscape (http://www.inkscape.org/) -->

<svg
   xmlns:dc="http://purl.org/dc/elements/1.1/"
   xmlns:cc="http://creativecommons.org/ns#"
   xmlns:rdf="http://www.w3.org/1999/02/22-rdf-syntax-ns#"
   xmlns:svg="http://www.w3.org/2000/svg"
   xmlns="http://www.w3.org/2000/svg"
   xmlns:sodipodi="http://sodipodi.sourceforge.net/DTD/sodipodi-0.dtd"
   xmlns:inkscape="http://www.inkscape.org/namespaces/inkscape"
   sodipodi:docname="deco.svg"
   inkscape:version="0.91 r13725"
   version="1.1"
   id="svg7060"
   viewBox="0 0 210.0000005 170"
   height="170"
   width="210">
  <defs
     id="defs7062">
    <filter
       style="color-interpolation-filters:sRGB;"
       inkscape:label="Blend"
       id="filter3708">
      <feBlend
         in2="BackgroundImage"
         mode="multiply"
         result="blend"
         id="feBlend3710" />
    </filter>
    <filter
       style="color-interpolation-filters:sRGB;"
       inkscape:label="Blend"
       id="filter3712">
      <feBlend
         in2="BackgroundImage"
         mode="multiply"
         result="blend"
         id="feBlend3714" />
    </filter>
  </defs>
  <sodipodi:namedview
     units="px"
     fit-margin-bottom="0"
     fit-margin-right="0"
     fit-margin-left="0"
     fit-margin-top="0"
     inkscape:window-maximized="0"
     inkscape:window-y="0"
     inkscape:window-x="189"
     inkscape:window-height="668"
     inkscape:window-width="1136"
     guidetolerance="10000"
     objecttolerance="10000"
     inkscape:showpageshadow="false"
     showgrid="true"
     inkscape:current-layer="layer1"
     inkscape:document-units="px"
     inkscape:cy="82.7408762"
     inkscape:cx="90.11228093"
     inkscape:zoom="1.979898985"
     inkscape:pageshadow="2"
     inkscape:pageopacity="0"
     borderopacity="1.0"
     bordercolor="#666666"
     pagecolor="#d9d7cc"
     id="base">
    <inkscape:grid
       type="xygrid"
       id="grid7068"
       dotted="true"
       spacingx="5.000000039"
       spacingy="5.000000105"
       originx="-241.4186322"
       originy="-482.6751154" />
  </sodipodi:namedview>
  <metadata
     id="metadata7065">
    <rdf:RDF>
      <cc:Work
         rdf:about="">
        <dc:format>image/svg+xml</dc:format>
        <dc:type
           rdf:resource="http://purl.org/dc/dcmitype/StillImage" />
        <dc:title />
      </cc:Work>
    </rdf:RDF>
  </metadata>
  <g
     inkscape:label="Layer 1"
     inkscape:groupmode="layer"
     id="layer1"
     transform="translate(-241.4186316,-399.6870744)">
    <path
       style="color:#000000;clip-rule:nonzero;display:inline;overflow:visible;visibility:visible;opacity:0.75;isolation:auto;mix-blend-mode:normal;color-interpolation:sRGB;color-interpolation-filters:linearRGB;solid-color:#000000;solid-opacity:1;fill:#c8beb7;fill-opacity:1;fill-rule:evenodd;stroke:#6c5d53;stroke-width:1.9999997616;stroke-linecap:round;stroke-linejoin:round;stroke-miterlimit:4;stroke-dasharray:none;stroke-dashoffset:0;stroke-opacity:1;marker:none;marker-start:none;marker-mid:none;marker-end:none;color-rendering:auto;image-rendering:auto;shape-rendering:auto;text-rendering:auto;enable-background:accumulate"
       d="m 709.9394957,370.8079145 c -5.1009065,22.2907626 1.0658413,89.3253534 -18.1000185,137.0267643 0.7908167,-7.292017 -16.5344104,-93.207354 -16.5344104,-93.207354 l -10.7644553,14.4288089 c 12.7902574,32.1214548 14.5367474,86.7098548 14.5367474,86.7098548 l 14.222805,8.7737697 c 0,0 22.2718907,-84.1318461 30.0629731,-123.7973026 z"
       id="path5200"
       inkscape:connector-curvature="0"
       sodipodi:nodetypes="cccccccc" />
    <path
       style="color:#000000;clip-rule:nonzero;display:inline;overflow:visible;visibility:visible;opacity:0.75;isolation:auto;mix-blend-mode:normal;color-interpolation:sRGB;color-interpolation-filters:linearRGB;solid-color:#000000;solid-opacity:1;fill:#afdde9;fill-opacity:1;fill-rule:evenodd;stroke:#216778;stroke-width:1.9999996424;stroke-linecap:round;stroke-linejoin:round;stroke-miterlimit:4;stroke-dasharray:none;stroke-dashoffset:0;stroke-opacity:1;marker:none;marker-start:none;marker-mid:none;marker-end:none;color-rendering:auto;image-rendering:auto;shape-rendering:auto;text-rendering:auto;enable-background:accumulate"
       d="M 82.6579476,0.9997519557 C 69.6874987,22.08031026 46.4682617,83.03644976 13.0835065,124.8455964 16.7276555,117.5980763 44.5155128,50.62301026 44.5155128,50.62301026 l -20.7257235,1.2101677 C 18.8397426,90.27294136 0.9999907018,127.9642156 0.9999907018,127.9642156 L 6.967720302,142.758641 c 0,0 58.719426398,-83.58593874 80.922598498,-121.61257224 C 82.8295904,19.36431266 82.6579476,0.9997519557 82.6579476,0.9997519557 Z"
       id="path5200-8"
       inkscape:connector-curvature="0"
       sodipodi:nodetypes="cccccccc" />
    <path
       style="color:#000000;font-style:normal;font-variant:normal;font-weight:normal;font-stretch:normal;font-size:medium;line-height:normal;font-family:sans-serif;text-indent:0;text-align:start;text-decoration:none;text-decoration-line:none;text-decoration-style:solid;text-decoration-color:#000000;letter-spacing:normal;word-spacing:normal;text-transform:none;direction:ltr;block-progression:tb;writing-mode:lr-tb;baseline-shift:baseline;text-anchor:start;white-space:normal;clip-rule:nonzero;display:inline;overflow:visible;visibility:visible;opacity:1;isolation:auto;mix-blend-mode:normal;color-interpolation:sRGB;color-interpolation-filters:linearRGB;solid-color:#000000;solid-opacity:1;fill:#917c6f;fill-opacity:1;fill-rule:evenodd;stroke:none;stroke-width:4;stroke-linecap:round;stroke-linejoin:round;stroke-miterlimit:4;stroke-dasharray:none;stroke-dashoffset:0;stroke-opacity:1;color-rendering:auto;image-rendering:auto;shape-rendering:auto;text-rendering:auto;enable-background:accumulate"
       d="m 183.5527344,8.51644515 c -0.5522865,0.00809 -1.0496223,0.24019077 -1.40625,0.60742187 -0.3566277,0.3672311 -0.5725473,0.8695886 -0.5644532,1.421875 l 0,22.5 0,33.10660173 c -6.56e-4,0.0463891 0.00804,0.0860616 0.00977,0.13085937 -0.2839277,-0.11643718 -0.5594852,-0.24468115 -0.8535157,-0.34570312 -0.976099,-0.3353648 -1.9722274,-0.56558302 -2.9707031,-0.69726562 -0.4823218,-0.0636104 -0.964899,-0.10120959 -1.4472656,-0.11914063 0.1391607,-0.27641152 0.2261816,-0.6028577 0.2207031,-0.99023437 l 0,-15 0,-25.60660173 c 0.00771,-0.56338041 -0.219483,-1.07335325 -0.5878906,-1.44140626 -0.3684077,-0.36805309 -0.8780334,-0.59418649 -1.4414062,-0.5859375 -0.5518997,0.00809 -1.0496618,0.23863166 -1.40625,0.60546876 -0.3565882,0.36683709 -0.5720028,0.86996769 -0.5644532,1.421875 l 1.2617188,29.14175797 -1.0449219,12.734375 c -1.4881883,0.28828979 -2.9266862,0.78571071 -4.2636719,1.48046876 0.0058,-0.0749557 0.018705,-0.14496277 0.017578,-0.22460938 l 0,-7.5 0,-7.5 c 0.00772,-0.5637699 -0.2190867,-1.07526458 -0.5878907,-1.44335938 -0.368804,-0.36809479 -0.8796053,-0.59278967 -1.4433593,-0.58398437 -0.5515162,0.00862 -1.0481003,0.24062417 -1.4042969,0.60742187 -0.3561966,0.3667978 -0.5720058,0.86839008 -0.5644531,1.41992188 l 0.8828124,6.7421875 0.1269532,6.7421875 c -0.015611,1.10387993 -0.00937,2.74849701 0.5390625,3.32226562 -2.151987,1.70069962 -3.861152,3.99031358 -4.7988281,6.7734375 -1.2022333,3.56835741 -0.8844276,7.4001778 0.6484374,10.640625 1.2733119,2.69175678 3.3954051,4.962367 6.1699219,6.34765626 l -2.1132812,4.2265625 -2.2207031,4.44140622 c -0.088991,-0.00937 -0.1765045,-0.026579 -0.265625,-0.035156 -2.0085119,-0.193309 -4.049329,-0.183755 -6.0957032,0.042969 -2.0463742,0.2267237 -4.0983054,0.6706174 -6.1289062,1.3515625 -7.2979539,2.4473081 -13.1411296,7.7013362 -16.5234375,14.1992188 -0.1167104,0.2242169 -0.2231733,0.4545272 -0.3339844,0.6816406 l -72.83235336,1.2179669 -20.71289063,-0.7148437 c -1.3523227,-0.019125 -2.02929687,0.9904374 -2.02929687,2 0,1.0095626 0.67697417,2.0191252 2.02929687,2 l 60.47297839,-1.2179669 31.4882812,0.6757812 c -0.6545753,2.0749845 -1.0691378,4.2257797 -1.2226562,6.4160156 -0.2958336,-0.1740491 -0.6546578,-0.283526 -1.0917969,-0.2773437 l -23.4082031,0.7148437 -52.09602526,-0.2097674 c -1.3523227,-0.019125 -2.02929687,0.9904374 -2.02929687,2 0,1.0095626 0.67697417,2.0191252 2.02929687,2 L 100.6621094,132.3046875 130.5,131.2324219 c 0.4240825,0.006 0.773361,-0.097114 1.0644531,-0.2617188 0.1389132,2.3794288 0.5961078,4.7757078 1.40625,7.140625 0.3096419,0.9038876 0.6711341,1.7808322 1.0722657,2.6328125 l -41.35351568,2.7128906 -41.4140625,-2.1425781 -44.894160051,1.8279269 c -0.67616129,-0.00956 -1.18340377,0.2390391 -1.52148437,0.6152344 -0.3380807,0.3761953 -0.5078125,0.8799843 -0.5078125,1.3847656 0,0.5047813 0.1697318,1.0105235 0.5078125,1.3867188 0.3380806,0.3761954 0.84532308,0.6228438 1.52148437,0.6132812 l 50.966425681,-2.1853488 26.05664063,1.4277344 54.24414062,0 c 2.3005702,2.7537431 5.1276164,5.0150615 8.2773437,6.6347656 5.9059683,3.0370633 12.9278594,3.8345716 19.6464844,1.4726563 5.8907554,-2.0708799 10.6009783,-6.398344 13.2929688,-11.7128906 2.6919906,-5.3145466 3.3657488,-11.6161757 1.1816406,-17.6328125 -1.882777,-5.1865495 -5.7504927,-9.3313208 -10.4746094,-11.6777344 -4.7241167,-2.3464137 -10.3046345,-2.8944696 -15.6191406,-0.8847656 -4.4817542,1.6947952 -8.062628,5.1021111 -10.0625,9.2382812 -1.999872,4.1361701 -2.4187423,9.0011942 -0.578125,13.6132813 1.5070125,3.7761642 4.4555681,6.791979 8.0058594,8.4433593 3.5502912,1.6513804 7.7023182,1.9383259 11.6113281,0.2578126 3.0695478,-1.3196221 5.5217204,-3.8189312 6.8222656,-6.7890626 1.3005452,-2.9701313 1.4494635,-6.4110847 -0.087891,-9.6152343 -0.5666476,-1.1810058 -1.3494337,-2.230216 -2.2871094,-3.1035157 -0.9376756,-0.8732996 -2.0302409,-1.5706889 -3.21875,-2.0488281 -1.1885092,-0.4781392 -2.497422,-0.7242319 -3.8203125,-0.671875 -1.3228905,0.052357 -2.6597586,0.4031635 -3.90625,1.1191407 -1.1775798,0.658228 -1.4424913,3.1356517 -2.1875,3.8144531 -2.0910464,1.9052194 1.5880408,1.4119887 2.75,0.7265625 0.680523,-0.3908884 1.3952833,-0.4890812 2.0976563,-0.6113282 0,0 2.8625107,-0.9523369 3.5742187,-0.6660156 0.7117079,0.2863212 1.3908947,0.7263143 1.9765625,1.2714844 0.5856678,0.5451701 1.0778167,1.1955171 1.4160157,1.9003906 0.9996631,2.0834962 0.8699176,4.3828823 -0.033203,6.3867188 -0.9031205,2.0038366 -2.7593034,2.1047017 -4.8554687,3.0058594 -2.7971019,1.2024956 -5.6428493,2.5770596 -8.2460938,1.3457031 -2.6032445,-1.2313564 -4.7842987,-3.4612115 -5.8964843,-6.2480469 -1.3993379,-3.5063607 -1.9474888,-7.9688133 -0.3828126,-11.1699219 1.5646763,-3.2011087 5.2421795,-5.1408736 8.7226563,-6.4570312 4.2132502,-1.5932591 8.1495911,-2.5627848 11.9472656,-0.6621094 3.7976745,1.9006755 7.4566825,6.6715519 8.9726563,10.8476563 1.7855539,4.9187257 1.2110256,10.1140168 -1.0273438,14.5078124 -2.2383694,4.3937956 -3.64058,7.2732052 -8.5136718,8.9863282 -5.6232965,1.9768554 -13.5064729,3.071668 -18.4960938,0.4941406 -2.5964168,-1.3412514 -5.0823881,-3.4880384 -7.1425781,-6.0195312 0.00136,-0.032003 0.00781,-0.063667 0.00781,-0.095703 0,-0.428359 -0.6486622,-1.1745941 -1.484375,-1.8945312 -1.2177384,-1.8063038 -2.2111637,-3.7379512 -2.875,-5.6757813 -2.1675078,-6.3272555 -1.3606832,-14.3974754 1.5566406,-19.9824219 2.9173238,-5.5849463 7.9451467,-8.6846193 14.2148438,-10.7871093 4.0433733,-1.3559111 8.2538953,-2.0336205 12.2792968,-1.75 0.2272381,0.058077 0.4604533,0.080085 0.6933594,0.058594 2.7268863,0.2697431 5.3579562,0.9913609 7.7792969,2.2675782 6.180131,3.2573648 9.5696658,10.4529953 11.8652343,17.421875 1.4411841,4.375142 3.1848656,8.6704187 2.46875,13.1660156 -0.7161156,4.4955969 -2.4623405,8.8340922 -5.1464843,12.5800781 -0.7766924,1.0839839 -0.3520508,2.2084961 0.4609375,2.7910156 0.8129883,0.5825196 2.0143232,0.6230464 2.7910156,-0.4609375 3.0551272,-4.2637297 5.0433141,-9.180085 5.8554688,-14.2832031 0.8121545,-5.1031181 -0.6239886,-10.2133114 -2.2734376,-15.2207031 -1.9766956,-6.0008467 -4.6153039,-11.2838652 -9.3378906,-15.0332032 -3.6651553,-2.9098259 -7.9429908,-4.9919544 -12.4902344,-6.0546874 l 1.3574219,-5.42968755 2.9980469,-2.6640625 c 2.629932,0.4155996 5.3089609,0.008827 7.6425781,-1.11132813 2.9241231,-1.4036022 5.3056595,-3.90521764 6.3652344,-7.23046874 0.9227768,-2.8959394 0.6279483,-5.99775175 -0.6464844,-8.60546876 -1.2744328,-2.6077171 -3.5284699,-4.72133884 -6.5234375,-5.63671874 -2.5594994,-0.78228381 -5.29987,-0.49673048 -7.5917968,0.65039062 -2.2919268,1.1471211 -4.1354098,3.15581002 -4.9042969,5.82226562 -0.2773718,0.9609526 0.3046765,1.64941088 1.0253906,1.85742188 0.7207141,0.208011 1.5800938,-0.0644258 1.8574219,-1.02539062 0.5227549,-1.81288361 2.1676188,-2.83839708 3.7734375,-3.63085938 1.6058187,-0.7924622 4.2429048,-1.88702935 6.0332031,-1.33984375 2.1535493,0.6582095 2.7181007,2.74649542 3.6464844,4.66601563 0.9283837,1.91952009 1.150287,4.20543064 0.4726562,6.33203124 -0.7943268,2.49282621 -3.3264569,2.59656466 -5.5605468,3.66015626 -2.23409,1.06359159 -4.1701394,3.08703635 -6.6328126,2.27734374 -2.831202,-0.93085989 -4.9740309,-2.11888884 -6.171875,-4.66796874 -1.1978439,-2.54908001 -1.4507034,-6.459211 -0.5078124,-9.2578125 1.0676705,-3.1689613 3.415272,-5.56109673 6.2792968,-6.89257813 2.8640247,-1.3314814 6.2444728,-1.60230873 9.3789063,-0.52539063 3.5062807,1.20467601 6.3280725,2.56715586 7.7929687,5.74609376 1.4648962,3.17893789 1.5728966,8.17433384 0.3613282,11.64453124 -0.2248358,0.6439789 -0.4974784,1.27247475 -0.8125,1.87890626 -0.3150217,0.6064316 -0.6724223,1.19079874 -1.0703126,1.74609374 -0.6032093,0.81657711 -0.284023,1.67037333 0.3320313,2.11132813 0.6160544,0.4409548 1.5289767,0.46906823 2.1074219,-0.36523437 0.4810193,-0.6713096 0.9125245,-1.37522698 1.2929687,-2.10742188 0.3804442,-0.732195 0.7098274,-1.4926674 0.9824219,-2.2734375 1.4804569,-4.2403523 1.138282,-8.80240445 -0.6542969,-12.67578125 -1.2093533,-2.61315205 -3.0922001,-4.89849794 -5.5078125,-6.57421875 0.3318768,-0.25946411 0.4992809,-0.7222297 0.4882813,-1.5 l -0.3789063,-34.74917985 0.8847656,-21.11132813 c 0.00826,-0.5637618 -0.217488,-1.07490998 -0.5859374,-1.44335937 -0.3684494,-0.3684494 -0.8795976,-0.59420001 -1.4433567,-0.585938 z"
       transform="translate(241.4186316,399.6870744)"
       id="path4761"
       inkscape:connector-curvature="0"
       sodipodi:nodetypes="ssccccssccccscscccccccscsccccsscccsssscccscccccccsccccsccccsssccccssssssssssssssscsccsssssssssssssscscsssccssscscssscccssssscscssssssssssssscscsssccccss" />
  </g>
</svg>
