<?xml version="1.0" encoding="UTF-8" standalone="no"?>
<!-- Created with Inkscape (http://www.inkscape.org/) -->

<svg
   xmlns:dc="http://purl.org/dc/elements/1.1/"
   xmlns:cc="http://creativecommons.org/ns#"
   xmlns:rdf="http://www.w3.org/1999/02/22-rdf-syntax-ns#"
   xmlns:svg="http://www.w3.org/2000/svg"
   xmlns="http://www.w3.org/2000/svg"
   xmlns:sodipodi="http://sodipodi.sourceforge.net/DTD/sodipodi-0.dtd"
   xmlns:inkscape="http://www.inkscape.org/namespaces/inkscape"
   width="50"
   height="50"
   id="svg2"
   version="1.1"
   inkscape:version="0.48.5 r10040"
   sodipodi:docname="New document 1">
  <defs
     id="defs4" />
  <sodipodi:namedview
     id="base"
     pagecolor="#ffffff"
     bordercolor="#666666"
     borderopacity="1.0"
     inkscape:pageopacity="0.0"
     inkscape:pageshadow="2"
     inkscape:zoom="7.91959593"
     inkscape:cx="36.34310752"
     inkscape:cy="22.86096936"
     inkscape:document-units="px"
     inkscape:current-layer="layer1"
     showgrid="false"
     inkscape:showpageshadow="false"
     inkscape:window-width="1159"
     inkscape:window-height="727"
     inkscape:window-x="138"
     inkscape:window-y="74"
     inkscape:window-maximized="0" />
  <metadata
     id="metadata7">
    <rdf:RDF>
      <cc:Work
         rdf:about="">
        <dc:format>image/svg+xml</dc:format>
        <dc:type
           rdf:resource="http://purl.org/dc/dcmitype/StillImage" />
        <dc:title></dc:title>
      </cc:Work>
    </rdf:RDF>
  </metadata>
  <g
     inkscape:label="Layer 1"
     inkscape:groupmode="layer"
     id="layer1"
     transform="translate(0,-1002.362183)">
    <g
       id="g3109"
       transform="translate(-0.3788072051,0.1262690684)">
      <rect
         ry="3.661803007"
         y="1002.990967"
         x="1.388959646"
         height="48.48732376"
         width="47.85597229"
         id="rect3066"
         style="color:#000000;fill:#0044aa;fill-opacity:1;fill-rule:nonzero;stroke:none;stroke-width:4;marker:none;visibility:visible;display:inline;overflow:visible;enable-background:accumulate" />
      <path
         id="path3103"
         transform="translate(0,1002.362183)"
         d="m 25.125,42.8125 c -10.77879179,0 -19.920293007,2.03500584 -22.84375,4.875 C 2.951845917,48.47168668 3.945071247,49 5.0625,49 l 40.53125,0 c 1.01431943,0 1.93187911,-0.43187911 2.59375,-1.09375 C 45.52019089,44.97334917 36.22097829,42.8125 25.125,42.8125 z"
         style="color:#000000;fill:#e9ddaf;fill-opacity:1;fill-rule:nonzero;stroke:none;stroke-width:4;marker:none;visibility:visible;display:inline;overflow:visible;enable-background:accumulate"
         inkscape:connector-curvature="0" />
      <path
         inkscape:transform-center-y="-0.06905844045"
         inkscape:transform-center-x="0.06905844045"
         transform="translate(3.788072051,969.6584943)"
         d="M 8.838834991,42.29758619 7.94042132,41.99292525 7.18012455,42.56030012 7.192249229,41.61171253 6.417699045,41.06395581 7.32360618,40.78235738 l 0.28159843,-0.90590713 0.547756722,0.77455018 0.948587584,-0.0121247 -0.567374864,0.76029677 z"
         inkscape:randomized="0"
         inkscape:rounded="0"
         inkscape:flatsided="false"
         sodipodi:arg2="1.413716694"
         sodipodi:arg1="0.7853981634"
         sodipodi:r2="0.7142856717"
         sodipodi:r1="1.428571463"
         sodipodi:cy="41.28743362"
         sodipodi:cx="7.828682423"
         sodipodi:sides="5"
         id="path3070"
         style="color:#000000;fill:#d7eef4;fill-opacity:1;fill-rule:nonzero;stroke:none;stroke-width:4;marker:none;visibility:visible;display:inline;overflow:visible;enable-background:accumulate"
         sodipodi:type="star" />
      <path
         sodipodi:type="star"
         style="color:#000000;fill:#d7eef4;fill-opacity:1;fill-rule:nonzero;stroke:none;stroke-width:4;marker:none;visibility:visible;display:inline;overflow:visible;enable-background:accumulate"
         id="path3072"
         sodipodi:sides="5"
         sodipodi:cx="7.828682423"
         sodipodi:cy="41.28743362"
         sodipodi:r1="1.428571463"
         sodipodi:r2="0.7142856717"
         sodipodi:arg1="0.7853981634"
         sodipodi:arg2="1.413716694"
         inkscape:flatsided="false"
         inkscape:rounded="0"
         inkscape:randomized="0"
         d="M 8.838834991,42.29758619 7.94042132,41.99292525 7.18012455,42.56030012 7.192249229,41.61171253 6.417699045,41.06395581 7.32360618,40.78235738 l 0.28159843,-0.90590713 0.547756722,0.77455018 0.948587584,-0.0121247 -0.567374864,0.76029677 z"
         transform="matrix(1.47047739,0,0,1.47047739,-1.50415348,960.1151681)"
         inkscape:transform-center-x="0.1015488795"
         inkscape:transform-center-y="-0.1015488576" />
      <path
         inkscape:transform-center-y="-0.09180178106"
         inkscape:transform-center-x="0.09180174908"
         transform="matrix(1.329334173,0,0,1.329334173,26.5495109,956.6520855)"
         d="M 8.838834991,42.29758619 7.94042132,41.99292525 7.18012455,42.56030012 7.192249229,41.61171253 6.417699045,41.06395581 7.32360618,40.78235738 l 0.28159843,-0.90590713 0.547756722,0.77455018 0.948587584,-0.0121247 -0.567374864,0.76029677 z"
         inkscape:randomized="0"
         inkscape:rounded="0"
         inkscape:flatsided="false"
         sodipodi:arg2="1.413716694"
         sodipodi:arg1="0.7853981634"
         sodipodi:r2="0.7142856717"
         sodipodi:r1="1.428571463"
         sodipodi:cy="41.28743362"
         sodipodi:cx="7.828682423"
         sodipodi:sides="5"
         id="path3074"
         style="color:#000000;fill:#d7eef4;fill-opacity:1;fill-rule:nonzero;stroke:none;stroke-width:4;marker:none;visibility:visible;display:inline;overflow:visible;enable-background:accumulate"
         sodipodi:type="star" />
      <path
         sodipodi:type="star"
         style="color:#000000;fill:#d7eef4;fill-opacity:1;fill-rule:nonzero;stroke:none;stroke-width:4;marker:none;visibility:visible;display:inline;overflow:visible;enable-background:accumulate"
         id="path3076"
         sodipodi:sides="5"
         sodipodi:cx="7.828682423"
         sodipodi:cy="41.28743362"
         sodipodi:r1="1.428571463"
         sodipodi:r2="0.7142856717"
         sodipodi:arg1="0.7853981634"
         sodipodi:arg2="1.413716694"
         inkscape:flatsided="false"
         inkscape:rounded="0"
         inkscape:randomized="0"
         d="M 8.838834991,42.29758619 7.94042132,41.99292525 7.18012455,42.56030012 7.192249229,41.61171253 6.417699045,41.06395581 7.32360618,40.78235738 l 0.28159843,-0.90590713 0.547756722,0.77455018 0.948587584,-0.0121247 -0.567374864,0.76029677 z"
         transform="translate(23.35977764,964.2289244)"
         inkscape:transform-center-x="0.06905844045"
         inkscape:transform-center-y="-0.06905844045" />
      <path
         inkscape:transform-center-y="-0.06905844045"
         inkscape:transform-center-x="0.06905844045"
         transform="translate(36.74429889,964.3551935)"
         d="M 8.838834991,42.29758619 7.94042132,41.99292525 7.18012455,42.56030012 7.192249229,41.61171253 6.417699045,41.06395581 7.32360618,40.78235738 l 0.28159843,-0.90590713 0.547756722,0.77455018 0.948587584,-0.0121247 -0.567374864,0.76029677 z"
         inkscape:randomized="0"
         inkscape:rounded="0"
         inkscape:flatsided="false"
         sodipodi:arg2="1.413716694"
         sodipodi:arg1="0.7853981634"
         sodipodi:r2="0.7142856717"
         sodipodi:r1="1.428571463"
         sodipodi:cy="41.28743362"
         sodipodi:cx="7.828682423"
         sodipodi:sides="5"
         id="path3078"
         style="color:#000000;fill:#d7eef4;fill-opacity:1;fill-rule:nonzero;stroke:none;stroke-width:4;marker:none;visibility:visible;display:inline;overflow:visible;enable-background:accumulate"
         sodipodi:type="star" />
      <path
         sodipodi:type="star"
         style="color:#000000;fill:#d7eef4;fill-opacity:1;fill-rule:nonzero;stroke:none;stroke-width:4;marker:none;visibility:visible;display:inline;overflow:visible;enable-background:accumulate"
         id="path3080"
         sodipodi:sides="5"
         sodipodi:cx="7.828682423"
         sodipodi:cy="41.28743362"
         sodipodi:r1="1.428571463"
         sodipodi:r2="0.7142856717"
         sodipodi:arg1="0.7853981634"
         sodipodi:arg2="1.413716694"
         inkscape:flatsided="false"
         inkscape:rounded="0"
         inkscape:randomized="0"
         d="M 8.838834991,42.29758619 7.94042132,41.99292525 7.18012455,42.56030012 7.192249229,41.61171253 6.417699045,41.06395581 7.32360618,40.78235738 l 0.28159843,-0.90590713 0.547756722,0.77455018 0.948587584,-0.0121247 -0.567374864,0.76029677 z"
         transform="matrix(1.376381912,0,0,1.376381912,29.40429939,972.2011203)"
         inkscape:transform-center-x="0.0950507946"
         inkscape:transform-center-y="-0.09505080115" />
      <path
         inkscape:transform-center-y="-0.06905844045"
         inkscape:transform-center-x="0.06905844045"
         transform="translate(-1.262690686,994.1546935)"
         d="M 8.838834991,42.29758619 7.94042132,41.99292525 7.18012455,42.56030012 7.192249229,41.61171253 6.417699045,41.06395581 7.32360618,40.78235738 l 0.28159843,-0.90590713 0.547756722,0.77455018 0.948587584,-0.0121247 -0.567374864,0.76029677 z"
         inkscape:randomized="0"
         inkscape:rounded="0"
         inkscape:flatsided="false"
         sodipodi:arg2="1.413716694"
         sodipodi:arg1="0.7853981634"
         sodipodi:r2="0.7142856717"
         sodipodi:r1="1.428571463"
         sodipodi:cy="41.28743362"
         sodipodi:cx="7.828682423"
         sodipodi:sides="5"
         id="path3082"
         style="color:#000000;fill:#d7eef4;fill-opacity:1;fill-rule:nonzero;stroke:none;stroke-width:4;marker:none;visibility:visible;display:inline;overflow:visible;enable-background:accumulate"
         sodipodi:type="star" />
      <path
         sodipodi:type="star"
         style="color:#000000;fill:#d7eef4;fill-opacity:1;fill-rule:nonzero;stroke:none;stroke-width:4;marker:none;visibility:visible;display:inline;overflow:visible;enable-background:accumulate"
         id="path3084"
         sodipodi:sides="5"
         sodipodi:cx="7.828682423"
         sodipodi:cy="41.28743362"
         sodipodi:r1="1.428571463"
         sodipodi:r2="0.7142856717"
         sodipodi:arg1="0.7853981634"
         sodipodi:arg2="1.413716694"
         inkscape:flatsided="false"
         inkscape:rounded="0"
         inkscape:randomized="0"
         d="M 8.838834991,42.29758619 7.94042132,41.99292525 7.18012455,42.56030012 7.192249229,41.61171253 6.417699045,41.06395581 7.32360618,40.78235738 l 0.28159843,-0.90590713 0.547756722,0.77455018 0.948587584,-0.0121247 -0.567374864,0.76029677 z"
         transform="translate(-2.272843235,965.4916151)"
         inkscape:transform-center-x="0.06905844045"
         inkscape:transform-center-y="-0.06905844045" />
      <path
         sodipodi:type="star"
         style="color:#000000;fill:#d7eef4;fill-opacity:1;fill-rule:nonzero;stroke:none;stroke-width:4;marker:none;visibility:visible;display:inline;overflow:visible;enable-background:accumulate"
         id="path3086"
         sodipodi:sides="5"
         sodipodi:cx="7.828682423"
         sodipodi:cy="41.28743362"
         sodipodi:r1="1.428571463"
         sodipodi:r2="0.7142856717"
         sodipodi:arg1="0.7853981634"
         sodipodi:arg2="1.413716694"
         inkscape:flatsided="false"
         inkscape:rounded="0"
         inkscape:randomized="0"
         d="M 8.838834991,42.29758619 7.94042132,41.99292525 7.18012455,42.56030012 7.192249229,41.61171253 6.417699045,41.06395581 7.32360618,40.78235738 l 0.28159843,-0.90590713 0.547756722,0.77455018 0.948587584,-0.0121247 -0.567374864,0.76029677 z"
         transform="translate(38.13325864,974.0779116)"
         inkscape:transform-center-x="0.06905844045"
         inkscape:transform-center-y="-0.06905844045" />
      <g
         id="g3088">
        <path
           style="color:#000000;fill:#aad400;fill-opacity:1;fill-rule:nonzero;stroke:#88aa00;stroke-width:1.9999998808;stroke-linecap:round;stroke-linejoin:round;stroke-miterlimit:4;stroke-opacity:1;stroke-dashoffset:0;marker:none;visibility:visible;display:inline;overflow:visible;enable-background:accumulate"
           d="m 10.83931089,1027.865983 c 1.11799053,6.317597 6.46272777,11.616755 14.43490649,11.616755 7.97217872,0 11.40776103,-5.413669 13.04594674,-11.616755 3.66180298,-13.865631 -4.06132653,-6.983327 -13.04594674,-7.071068 -9.14262996,-0.08928 -15.950135309,-1.491262 -14.43490649,7.071068 z"
           id="path3023"
           inkscape:connector-curvature="0"
           sodipodi:nodetypes="sssss" />
        <path
           inkscape:connector-curvature="0"
           id="path3025"
           d="m 15.78363355,1026.622323 c 7.30362739,7.632978 21.45440545,-7.063354 18.601426,-0.341776 -2.85297945,6.721578 -3.76593287,9.569705 -9.58601094,8.430454 -5.82007808,-1.13925 -9.01541506,-8.088678 -9.01541506,-8.088678 z"
           style="fill:#e5ff80;stroke:#668000;stroke-width:1px;stroke-linecap:butt;stroke-linejoin:miter;stroke-opacity:1" />
        <path
           sodipodi:type="arc"
           style="color:#000000;fill:#e5ff80;fill-opacity:1;fill-rule:nonzero;stroke:#88aa00;stroke-width:3.33802104;stroke-linecap:round;stroke-linejoin:round;stroke-miterlimit:4;stroke-opacity:1;stroke-dasharray:none;stroke-dashoffset:0;marker:none;visibility:visible;display:inline;overflow:visible;enable-background:accumulate"
           id="path3027"
           sodipodi:cx="24.93814087"
           sodipodi:cy="24.61991692"
           sodipodi:rx="7.00793314"
           sodipodi:ry="6.692260742"
           d="m 31.94607401,24.61991692 c 0,3.69603355 -3.13755854,6.69226074 -7.00793314,6.69226074 -3.8703746,0 -7.00793314,-2.99622719 -7.00793314,-6.69226074 0,-3.69603355 3.13755854,-6.69226075 7.00793314,-6.69226075 3.8703746,0 7.00793314,2.9962272 7.00793314,6.69226075 z"
           transform="matrix(0.6003356293,0,0,0.5979814543,6.097543543,994.7959517)" />
        <path
           transform="matrix(0.2940293162,0,0,0.2898708807,23.71150992,1004.948643)"
           d="m 31.94607401,24.61991692 c 0,3.69603355 -3.13755854,6.69226074 -7.00793314,6.69226074 -3.8703746,0 -7.00793314,-2.99622719 -7.00793314,-6.69226074 0,-3.69603355 3.13755854,-6.69226075 7.00793314,-6.69226075 3.8703746,0 7.00793314,2.9962272 7.00793314,6.69226075 z"
           sodipodi:ry="6.692260742"
           sodipodi:rx="7.00793314"
           sodipodi:cy="24.61991692"
           sodipodi:cx="24.93814087"
           id="path3029"
           style="color:#000000;fill:#d4ff2a;fill-opacity:1;fill-rule:nonzero;stroke:#88aa00;stroke-width:3.4253296852;stroke-linecap:round;stroke-linejoin:round;stroke-miterlimit:4;stroke-opacity:1;stroke-dasharray:none;stroke-dashoffset:0;marker:none;visibility:visible;display:inline;overflow:visible;enable-background:accumulate"
           sodipodi:type="arc" />
        <path
           transform="matrix(1.133333331,0,0,1.411764687,-1.995051247,981.9299282)"
           d="m 21.59201086,20.6424408 c 0,0.59276011 -0.42399442,1.07328713 -0.94701803,1.07328713 -0.52302362,0 -0.94701803,-0.48052702 -0.94701803,-1.07328713 0,-0.59276012 0.42399441,-1.07328713 0.94701803,-1.07328713 0.52302361,0 0.94701803,0.48052701 0.94701803,1.07328713 z"
           sodipodi:ry="1.073287129"
           sodipodi:rx="0.9470180273"
           sodipodi:cy="20.6424408"
           sodipodi:cx="20.64499283"
           id="path3031"
           style="color:#000000;fill:#2b1100;fill-opacity:1;fill-rule:nonzero;stroke:none;stroke-width:1;marker:none;visibility:visible;display:inline;overflow:visible;enable-background:accumulate"
           sodipodi:type="arc" />
        <path
           sodipodi:type="arc"
           style="color:#000000;fill:#2b1100;fill-opacity:1;fill-rule:nonzero;stroke:none;stroke-width:1;marker:none;visibility:visible;display:inline;overflow:visible;enable-background:accumulate"
           id="path3033"
           sodipodi:cx="20.64499283"
           sodipodi:cy="20.6424408"
           sodipodi:rx="0.9470180273"
           sodipodi:ry="1.073287129"
           d="m 21.59201086,20.6424408 c 0,0.59276011 -0.42399442,1.07328713 -0.94701803,1.07328713 -0.52302362,0 -0.94701803,-0.48052702 -0.94701803,-1.07328713 0,-0.59276012 0.42399441,-1.07328713 0.94701803,-1.07328713 0.52302361,0 0.94701803,0.48052701 0.94701803,1.07328713 z"
           transform="translate(11.23794709,990.7454286)" />
        <path
           style="fill:none;stroke:#88aa00;stroke-width:4;stroke-linecap:butt;stroke-linejoin:miter;stroke-opacity:1"
           d="m 19.44543653,1020.163571 c -0.3788072,-4.293148 0.12626906,-6.944799 0.12626906,-6.944799"
           id="path3048"
           inkscape:connector-curvature="0"
           sodipodi:nodetypes="cc" />
        <path
           sodipodi:nodetypes="cc"
           inkscape:connector-curvature="0"
           id="path3053"
           d="m 30.55711455,1020.542379 c -0.3788072,-4.293148 0.12626906,-6.944799 0.12626906,-6.944799"
           style="fill:none;stroke:#88aa00;stroke-width:4;stroke-linecap:butt;stroke-linejoin:miter;stroke-opacity:1" />
        <path
           sodipodi:type="arc"
           style="color:#000000;fill:#88aa00;fill-opacity:1;fill-rule:nonzero;stroke:#88aa00;stroke-width:6.1768798828;stroke-linecap:round;stroke-linejoin:round;stroke-miterlimit:4;stroke-opacity:1;stroke-dasharray:none;stroke-dashoffset:0;marker:none;visibility:visible;display:inline;overflow:visible;enable-background:accumulate"
           id="path3055"
           sodipodi:cx="69.95306396"
           sodipodi:cy="46.46446609"
           sodipodi:rx="3.030457735"
           sodipodi:ry="3.914341211"
           d="m 72.9835217,46.46446609 c 0,2.16183096 -1.35678214,3.91434122 -3.03045774,3.91434122 -1.67367559,0 -3.03045773,-1.75251026 -3.03045773,-3.91434122 0,-2.16183095 1.35678214,-3.91434121 3.03045773,-3.91434121 1.6736756,0 3.03045774,1.75251026 3.03045774,3.91434121 z"
           transform="matrix(1,0,0,0.4193548523,-44.57298114,1022.775559)" />
        <path
           transform="matrix(0.9808762608,-0.1946323741,-0.0816200305,-0.4113352195,-44.33375615,1079.77128)"
           d="m 72.9835217,46.46446609 c 0,2.16183096 -1.35678214,3.91434122 -3.03045774,3.91434122 -1.60587415,0 -2.93293421,-1.61807801 -3.02542699,-3.68888872 l 3.02542699,-0.2254525 z"
           sodipodi:ry="3.914341211"
           sodipodi:rx="3.030457735"
           sodipodi:cy="46.46446609"
           sodipodi:cx="69.95306396"
           id="path3062"
           style="color:#000000;fill:#88aa00;fill-opacity:1;fill-rule:nonzero;stroke:#88aa00;stroke-width:6.1768798828;stroke-linecap:round;stroke-linejoin:round;stroke-miterlimit:4;stroke-opacity:1;stroke-dasharray:none;stroke-dashoffset:0;marker:none;visibility:visible;display:inline;overflow:visible;enable-background:accumulate"
           sodipodi:type="arc"
           sodipodi:start="0"
           sodipodi:end="3.083964226" />
        <path
           sodipodi:end="3.083964226"
           sodipodi:start="0"
           sodipodi:type="arc"
           style="color:#000000;fill:#88aa00;fill-opacity:1;fill-rule:nonzero;stroke:#88aa00;stroke-width:6.1768798828;stroke-linecap:round;stroke-linejoin:round;stroke-miterlimit:4;stroke-opacity:1;stroke-dasharray:none;stroke-dashoffset:0;marker:none;visibility:visible;display:inline;overflow:visible;enable-background:accumulate"
           id="path3064"
           sodipodi:cx="69.95306396"
           sodipodi:cy="46.46446609"
           sodipodi:rx="3.030457735"
           sodipodi:ry="3.914341211"
           d="m 72.9835217,46.46446609 c 0,2.16183096 -1.35678214,3.91434122 -3.03045774,3.91434122 -1.60587415,0 -2.93293421,-1.61807801 -3.02542699,-3.68888872 l 3.02542699,-0.2254525 z"
           transform="matrix(0.978453196,0.2064687465,0.0865836707,-0.4103190955,-41.07100067,1051.662816)" />
      </g>
      <path
         sodipodi:type="star"
         style="color:#000000;fill:#d7eef4;fill-opacity:1;fill-rule:nonzero;stroke:none;stroke-width:4;marker:none;visibility:visible;display:inline;overflow:visible;enable-background:accumulate"
         id="path3101"
         sodipodi:sides="5"
         sodipodi:cx="7.828682423"
         sodipodi:cy="41.28743362"
         sodipodi:r1="1.428571463"
         sodipodi:r2="0.7142856717"
         sodipodi:arg1="0.7853981634"
         sodipodi:arg2="1.413716694"
         inkscape:flatsided="false"
         inkscape:rounded="0"
         inkscape:randomized="0"
         d="M 8.838834991,42.29758619 7.94042132,41.99292525 7.18012455,42.56030012 7.192249229,41.61171253 6.417699045,41.06395581 7.32360618,40.78235738 l 0.28159843,-0.90590713 0.547756722,0.77455018 0.948587584,-0.0121247 -0.567374864,0.76029677 z"
         transform="translate(38.51206585,993.6496172)"
         inkscape:transform-center-x="0.06905844045"
         inkscape:transform-center-y="-0.06905844045" />
    </g>
  </g>
</svg>
